<?xml version="1.0" encoding="utf-8"?>
<!-- Generator: Adobe Illustrator 16.0.0, SVG Export Plug-In . SVG Version: 6.00 Build 0)  -->
<!DOCTYPE svg PUBLIC "-//W3C//DTD SVG 1.1//EN" "http://www.w3.org/Graphics/SVG/1.1/DTD/svg11.dtd">
<svg version="1.1" id="Layer_1" focusable="false" xmlns="http://www.w3.org/2000/svg" xmlns:xlink="http://www.w3.org/1999/xlink"
	 x="0px" y="0px" width="200px" height="200px" viewBox="0 0 200 200" enable-background="new 0 0 200 200" xml:space="preserve">
<path fill="#FFFFFF" d="M125.469,91.172L83.281,78.828C78.398,77.422,75,72.852,75,67.773c0-6.367,5.156-11.523,11.523-11.523
	h25.898c4.766,0,9.453,1.445,13.359,4.102c2.383,1.602,5.586,1.211,7.617-0.781l13.594-13.281c2.773-2.695,2.383-7.188-0.703-9.57
	c-9.57-7.5-21.523-11.68-33.789-11.719V6.25c0-3.438-2.813-6.25-6.25-6.25h-12.5c-3.438,0-6.25,2.813-6.25,6.25V25h-0.977
	c-24.883,0-44.883,21.367-42.578,46.719c1.641,18.008,15.391,32.656,32.734,37.734l40.039,11.719
	c4.883,1.445,8.281,5.977,8.281,11.055c0,6.367-5.156,11.523-11.523,11.523H87.578c-4.766,0-9.453-1.445-13.359-4.102
	c-2.383-1.602-5.586-1.211-7.617,0.781l-13.594,13.281c-2.773,2.695-2.383,7.188,0.703,9.57c9.57,7.5,21.523,11.68,33.789,11.719
	v18.75c0,3.438,2.813,6.25,6.25,6.25h12.5c3.438,0,6.25-2.813,6.25-6.25v-18.828c18.203-0.352,35.273-11.172,41.289-28.398
	C162.188,122.461,148.086,97.773,125.469,91.172z"/>
</svg>
